<svg width="50" height="50" viewBox="0 0 50 50" fill="none" xmlns="http://www.w3.org/2000/svg">
<path fill-rule="evenodd" clip-rule="evenodd" d="M0 5C0 2.23858 2.23858 0 5 0H45C47.7614 0 50 2.23858 50 5C50 7.76142 47.7614 10 45 10H5C2.23858 10 0 7.76142 0 5ZM0 25C0 22.2386 2.23858 20 5 20H45C47.7614 20 50 22.2386 50 25C50 27.7614 47.7614 30 45 30H5C2.23858 30 0 27.7614 0 25ZM5 40C2.23858 40 0 42.2386 0 45C0 47.7614 2.23858 50 5 50H45C47.7614 50 50 47.7614 50 45C50 42.2386 47.7614 40 45 40H5Z" fill="black"/>
</svg>
