<svg width="48" height="48" viewBox="0 0 48 48" fill="none" xmlns="http://www.w3.org/2000/svg">
<path fill-rule="evenodd" clip-rule="evenodd" d="M39.6212 1.12135C38.4497 -0.0502167 36.5502 -0.0502167 35.3786 1.12135L23.9117 12.5882L12.6215 1.29793C11.4499 0.126358 9.55042 0.126358 8.37884 1.29793L1.29798 8.3788C0.12641 9.55037 0.126407 11.4499 1.29798 12.6215L12.5882 23.9117L1.12132 35.3786C-0.0502558 36.5502 -0.0502558 38.4497 1.12132 39.6212L8.20218 46.7021C9.37375 47.8737 11.2732 47.8737 12.4448 46.7021L23.9117 35.2352L35.5553 46.8787C36.7268 48.0503 38.6263 48.0503 39.7979 46.8787L46.8788 39.7979C48.0503 38.6263 48.0503 36.7268 46.8788 35.5553L35.2352 23.9117L46.7021 12.4448C47.8737 11.2733 47.8737 9.37379 46.7021 8.20222L39.6212 1.12135Z" fill="white"/>
</svg>
